# xmcd
#
# Track frame offsets: 
#        200
#        17605
#        46962
#
# Disc length: 1165 seconds
#
# Revision: 3
# Processed by: cddbd v1.5.2PL0 Copyright (c) Steve Scherf et al.
# Submitted via: ExactAudioCopy v1.0b1
#
DISCID=19048b03
DTITLE=Donna Gardier - Good Thing
DYEAR=1991
DGENRE=R&B
TTITLE0=Good Thing (Radio Mix)
TTITLE1=Good Thing (Survival Mix)
TTITLE2=Good Thing (Sasha in Japan Mix)
EXTD=YEAR: 2001
EXTT0=
EXTT1=
EXTT2=
PLAYORDER=
